# xmcd
#
# Track frame offsets: 
#        150
#        24356
#        44718
#        68243
#        82573
#        113158
#        141883
#        162625
#        181406
#        220753
#        250581
#        272837
#
# Disc length: 3874 seconds
#
# Revision: 3
# Processed by: cddbd v1.5.2PL0 Copyright (c) Steve Scherf et al.
# Submitted via: ExactAudioCopy v1.0b1
#
DISCID=a40f200c
DTITLE=Galliano, Richard - Love Day
DYEAR=2008
DGENRE=Jazz
TTITLE0=Aurore
TTITLE1=Bonjour
TTITLE2=Birds
TTITLE3=Hymne
TTITLE4=Mister J
TTITLE5=Love Day
TTITLE6=Apple Pie
TTITLE7=Serenite
TTITLE8=Pourquoi?
TTITLE9=Poeme
TTITLE10=Aria
TTITLE11=Crepuscule
EXTD=YEAR: 2008
EXTT0=
EXTT1=
EXTT2=
EXTT3=
EXTT4=
EXTT5=
EXTT6=
EXTT7=
EXTT8=
EXTT9=
EXTT10=
EXTT11=
PLAYORDER=
